<?xml version="1.0" encoding="utf-8"?>
<!-- Svg Vector Icons : http://www.onlinewebfonts.com/icon -->
<!DOCTYPE svg PUBLIC "-//W3C//DTD SVG 1.1//EN" "http://www.w3.org/Graphics/SVG/1.1/DTD/svg11.dtd">
<svg version="1.1" xmlns="http://www.w3.org/2000/svg" xmlns:xlink="http://www.w3.org/1999/xlink" x="0px" y="0px" viewBox="0 0 1000 1000" enable-background="new 0 0 1000 1000" xml:space="preserve">
<metadata> Svg Vector Icons : http://www.onlinewebfonts.com/icon </metadata>
<g><g transform="translate(0.000000,511.000000) scale(0.100000,-0.100000)"><path d="M3936,4975.1c-71.6-44.5-143.1-174.1-212.8-386.8l-52.2-160.5l-187.6-92.8c-278.5-141.2-531.9-319.1-719.5-504.8c-251.4-249.5-381-460.3-473.9-767.9c-71.5-236-77.4-618.9-11.6-972.9c87-471.9,85.1-423.6,13.5-512.5c-143.1-176-154.7-218.6-152.8-560.9c0-473.9,81.2-762,266.9-957.4c73.5-79.3,85.1-104.4,116-261.1c73.5-382.9,357.8-930.3,711.8-1377.1c52.2-65.8,102.5-148.9,114.1-183.7c58-203.1-23.2-566.7-143.1-642.1c-23.2-13.5-119.9-40.6-212.8-58c-412-79.3-833.6-220.5-1183.7-392.6c-396.5-197.3-754.3-497.1-853-711.7c-139.2-301.7-7.7-659.5,292.1-800.7c139.3-63.8,727.2-187.6,1266.9-261.1c1661.4-232.1,3783.1-210.8,5338.2,56.1c396.5,67.7,806.5,160.5,909,205c112.2,50.3,222.4,156.7,286.3,278.5c44.5,83.2,52.2,119.9,52.2,270.8c0,156.7-5.8,183.8-58,280.5c-79.3,145.1-352,413.9-553.1,547.4c-379.1,249.5-1023.2,479.7-1541.5,547.4c-131.5,17.4-185.7,60-237.9,197.3c-34.8,89-44.5,150.9-44.5,313.3v203.1l185.7,255.3c208.9,288.2,373.3,555.1,471.9,767.8c83.2,179.9,174.1,456.5,191.5,584.1c11.6,75.4,32.9,114.1,96.7,183.8c148.9,160.5,226.3,371.4,263,715.6c42.5,402.3,3.9,622.8-141.2,825.9l-44.5,65.8l44.5,214.7c40.6,183.7,48.4,272.7,48.4,584.1c1.9,336.5-1.9,383-48.4,553.2c-129.6,477.7-371.4,847.2-735,1121.8c-413.9,311.4-810.4,429.4-1802.6,539.6c-566.7,61.9-711.8,100.6-938.1,247.6C4117.8,5019.6,4030.7,5033.1,3936,4975.1z M4173.9,4572.8c73.5-50.3,336.5-139.3,508.7-170.2c89-15.5,328.8-48.3,530-69.6c754.3-81.2,1088.9-166.3,1404.2-350.1c286.3-170.2,493.2-394.6,644.1-704c135.4-274.6,168.3-404.2,179.9-731.1l11.6-268.9l-85.1,44.5c-141.2,71.6-328.8,71.6-597.7,0c-514.5-137.3-940-197.3-1402.2-199.2c-582.2-1.9-961.3,92.8-1181.8,297.9c-139.2,127.6-152.8,272.7-46.4,481.6c48.4,94.8,48.4,154.7,0,216.6s-135.4,83.2-199.2,48.3c-27.1-13.5-98.6-90.9-158.6-170.2c-214.7-280.5-510.6-559-746.6-696.3c-139.2-83.2-384.9-181.8-404.2-160.5c-27.1,29-58,268.8-58,454.5c0,603.4,375.2,1098.6,1092.8,1444.8c96.7,46.4,195.3,102.5,218.6,125.7c56.1,50.3,123.8,177.9,170.2,326.9C4090.7,4611.5,4106.2,4621.1,4173.9,4572.8z M3959.2,2164.8c255.3-236,659.5-357.8,1253.3-379.1c506.7-17.4,961.3,36.8,1570.5,187.6c208.9,52.2,332.7,73.5,367.5,65.8c139.3-34.8,181.8-114.1,181.8-330.7c0-121.8,5.8-139.2,85.1-257.2c116-176,125.7-207,125.7-431.3c-1.9-383-87-663.4-232.1-764c-83.2-58-116.1-114.1-116.1-195.4c0-119.9-100.6-444.9-201.2-649.9c-185.7-379.1-586-949.7-837.5-1191.4c-179.9-174.1-338.5-284.3-564.8-392.6l-166.3-79.3h-406.2c-398.4,0-408.1,1.9-541.6,54.2c-408.1,162.5-756.3,495.1-1181.8,1127.6c-265,392.6-410,727.2-460.3,1058l-27.1,170.2l-116,112.2c-94.8,90.9-121.9,131.5-148.9,218.6c-48.4,172.1-67.7,319.1-67.7,549.3c0,214.7,0,214.7,65.8,299.8c34.8,46.4,87,104.4,116,127.7c63.8,56.1,81.2,125.7,52.2,222.4c-13.5,42.5-17.4,85.1-7.7,92.8c7.7,7.7,63.8,29,121.8,48.3c257.2,81.2,564.8,270.8,808.5,497.1l125.7,118l44.5-87C3825.7,2309.9,3897.3,2222.8,3959.2,2164.8z M6386.5-2349.5c23.2-63.8,61.9-150.8,89-193.4l48.3-75.4l-154.7-147c-481.6-454.5-1235.9-626.7-1916.7-435.2c-328.8,94.8-698.2,307.5-874.2,506.7l-77.4,89l40.6,60c58,87,104.4,201.2,131.5,317.2c13.5,54.2,29,100.6,32.9,100.6s79.3-52.2,166.3-118c183.7-135.4,390.7-245.6,586-307.5c183.7-60,794.9-79.3,1001.9-31c222.4,52.2,580.2,241.8,796.9,423.6l58,50.3l15.5-61.9C6340.1-2206.3,6365.2-2285.6,6386.5-2349.5z M3392.5-2989.6c216.6-214.7,508.7-386.8,849.1-500.9c470-156.7,998-170.2,1462.2-36.8c375.2,108.3,713.7,313.3,974.8,588l160.5,168.3l216.6-42.6c777.5-158.6,1340.4-437.1,1630.5-814.3c67.7-89,81.2-121.9,81.2-191.5c0-96.7-40.6-170.2-123.8-220.5c-61.9-36.7-470-131.5-851-195.3c-1516.4-253.4-3545.3-280.4-5137.1-65.8c-613.1,81.2-1212.7,205-1311.3,270.8c-56.1,36.8-106.4,139.3-106.4,214.7c0,160.5,317.2,444.9,725.3,647.9c299.8,150.8,684.7,282.4,1063.8,361.7l174.1,36.7l36.7-52.2C3259-2848.5,3328.7-2923.9,3392.5-2989.6z"/><path d="M3394.4,1228.7c-65.8-63.8-65.8-179.9-1.9-239.8c34.8-32.9,77.4-46.4,170.2-52.2c201.1-15.5,199.2-15.5,199.2-106.4c0-63.8,11.6-89,54.2-125.7c118-100.6,307.5-30.9,311.4,114.1l1.9,69.6l145.1-11.6c127.6-9.7,150.9-5.8,197.3,31c110.2,89,79.3,255.3-58,290.1c-69.6,19.3-754.3,79.3-899.4,79.3C3462.1,1277,3427.3,1263.5,3394.4,1228.7z"/><path d="M5961,1238.4c-354-30.9-375.2-34.8-423.6-81.2c-69.6-71.6-67.7-181.8,5.8-243.7c48.3-42.5,67.7-46.4,195.4-38.7l141.2,9.7v-65.8c0-147,212.8-220.5,321.1-110.2c40.6,38.7,48.4,63.8,42.6,125.7c-7.7,85.1-13.5,83.2,224.4,102.5c89,7.7,125.7,21.3,164.4,58c63.8,65.8,65.8,166.3,1.9,234C6578,1286.7,6520,1288.6,5961,1238.4z"/><path d="M4545.2-962.7c-77.4-77.4-77.4-160.5-3.9-236c69.6-69.6,222.4-102.5,468.1-102.5s398.4,32.9,468.1,102.5c73.5,75.4,73.5,158.6-3.9,236c-48.4,48.3-69.6,56.1-121.8,46.4c-305.6-54.2-363.6-58-501-32.9c-77.4,15.5-164.4,31-193.4,34.8C4616.8-906.6,4589.7-918.2,4545.2-962.7z"/></g></g>
</svg>