<svg width="10" height="19" viewBox="0 0 10 19" fill="none" xmlns="http://www.w3.org/2000/svg">
<path d="M1.88538 6.16205C2.4809 6.70487 3.42951 7.16337 4.73122 7.53755C5.76943 7.83794 6.48617 8.14361 6.88142 8.45454C7.27668 8.76021 7.47431 9.19499 7.47431 9.75889C7.47431 10.3228 7.26087 10.7681 6.83399 11.0949C6.40711 11.4216 5.79315 11.585 4.99209 11.585H2.5336V9.75889L1 8.6671V17.6221H2.5336V12.8261H4.99209C6.20949 12.8261 7.18182 12.5468 7.90909 11.9881C8.63637 11.4242 9 10.6759 9 9.74308C9 9.1581 8.86825 8.64954 8.60474 8.21739C8.34651 7.78524 7.94598 7.40843 7.40316 7.08696C6.86561 6.76021 6.11726 6.46245 5.1581 6.19368C4.20422 5.9249 3.52701 5.62978 3.12648 5.3083C2.73123 4.98155 2.5336 4.58366 2.5336 4.11462C2.5336 3.52964 2.74177 3.07378 3.1581 2.74704C3.57971 2.41502 4.16469 2.24901 4.91304 2.24901C5.71937 2.24901 6.34387 2.44928 6.78656 2.8498C7.22925 3.24506 7.45059 3.79051 7.45059 4.48617H8.97628C8.97628 3.84848 8.80501 3.26087 8.46245 2.72332C8.12517 2.18577 7.64559 1.76416 7.02371 1.4585C6.40711 1.15283 5.70356 1 4.91304 1C3.75362 1 2.81028 1.29776 2.083 1.89328C1.361 2.48353 1 3.23188 1 4.13834C1 4.93939 1.29513 5.61397 1.88538 6.16205Z" fill="white" stroke="white"/>
</svg>
